<svg xmlns="http://www.w3.org/2000/svg" width="512" height="512" viewBox="0 0 512 512"><g transform="translate(-648.25001 149.53124)matrix(4.8436725 0 0 4.8436725 -2479.6607 601.99912)"><g transform="matrix(0.6296875 0 0 0.6296875 648.25001 -150.16093)"><path d="M18.4 1 0 32 68 151H92L160 31.5 141 1Zm38.9 3.7 4.2 5.8 37-0.1 3.8-5.3 37.7 0.2 15.4 26.2-19.4 34.3h-6.2l-19.4 32.8 3.2 6.2-23.4 42.1H70.4L46.5 105.7 49.7 99.3 31 66.2 23.9 65.7 4.8 32.2 19.9 5Z" style="fill:#f3d573;stroke-width:1px"/><path d="M54.1 12.3H24l-11.4 20 16 27c5 0 7-0.1 9.7 4.5l18.3 30.8c2.7 5.4-2.1 9.7-1.8 10.3l19.5 35 11.3 0.1 19.5-34.2c-2.9-6.1-2.5-7.8-0.7-10.8L123.9 61.7c1.8-3.1 5.6-2.5 8.1-3L147.2 31.9 135.8 12h-29.4c-0.4 2.6-4 6-7.1 6l-39.2 0.3c-2.1 0-6-4-6-6z" style="fill:#917e43;stroke-width:1px;stroke:#f3d573"/></g><rect width="3.9" height="68" x="696.8" y="-130.4" style="fill:#f3d573;stroke-linejoin:round;stroke-width:0.3"/><path d="m701.6-116c4.8 6.5 2.7 12.9 0 19.4z" style="fill:#f3d573;stroke-width:1px"/><path d="m695.7-116c-4.8 6.5-2.7 12.9 0 19.4z" style="fill:#f3d573;stroke-width:1px"/><path d="m677.4-130.4h3.9v35.9l-3.9-7.3z" style="fill:#f3d573;stroke-width:1px"/><path d="m719.6-130.4h-3.9v36.7l3.9-6.7z" style="fill:#f3d573;stroke-width:1px"/><path d="m720.6-116c2.4 3.2 3.1 6.1 2.8 9.3l-2.8 4.8z" style="fill:#f3d573;stroke-width:1px"/><path d="m682.3-116c4.8 6.5 2.7 12.9 0 19.4z" style="fill:#f3d573;stroke-width:1px"/><path d="m714.7-116c-4.8 6.5-2.7 12.9 0 19.4z" style="fill:#f3d573;stroke-width:1px"/><path d="m676.4-116c-1.9 2.6-2.7 5.1-2.9 7.7l2.9 4.9z" style="fill:#f3d573;stroke-width:1px"/></g></svg>
