<svg xmlns="http://www.w3.org/2000/svg" width="512" height="512" viewBox="0 0 512 512"><g transform="matrix(3.05 0 0 3.05 12 25.725)"><path d="M54.1 12.3H24l-11.4 20 16 27c5 0 7-0.1 9.7 4.5l18.3 30.8c2.7 5.4-2.1 9.7-1.8 10.3l19.5 35 11.3 0.1 19.5-34.2c-2.9-6.1-2.5-7.8-0.7-10.8L123.9 61.7c1.8-3.1 5.6-2.5 8.1-3L147.2 31.9 135.8 12h-29.4c-0.4 2.6-4 6-7.1 6l-39.2 0.3c-2.1 0-6-4-6-6z" style="fill:#366654;stroke-width:1px;stroke:#6bcea8"/><path d="M18.4 0 0 31.2 68 151H92L160 30.7 141 0Zm38.9 3.7 4.2 5.9 37-0.1 3.8-5.3 37.7 0.2 15.4 26.4-19.4 34.5h-6.2l-19.4 33 3.2 6.3-23.4 42.4H70.4L46.5 105.4 49.7 99 31 65.7 23.9 65.1 4.8 31.4 19.9 4Z" style="fill:#6bcea8;stroke-width:1px"/><path d="m87.1 121 8.9 0 8.7-15.3c-1.2-3-3.4-6.5-0.8-10.7 1.6-2.6 3.4-5.7 5.4-9L109 72H87Z" style="fill:#b5e5d3;stroke-width:1px"/><g transform="matrix(0 1.1586075 -1.3602268 0 142.72888 -16.392792)" fill="#b5e5d3"><g fill="#b5e5d3"><path d="m118.6 50.5 0 6.9-14.1 6.7c-1.2-0.3-3.5-2.7-8.4-1.5-2.6 1.2-5.2 2.5-8.1 4H76.3V50.5Z" style="fill:#b5e5d3;stroke-width:1px"/></g><path d="m58.2 28.5v9.6c-8.6 0-12.9-1.5-21.7-5.1 8.7-3 13-4.5 21.7-4.5z" style="fill:#b5e5d3;stroke-width:1px"/><path d="m58.2 54.2v9.6c-8.6 0-12.9-1.5-21.1-5.1 8.1-2.9 12.5-4.4 21.1-4.4z" style="fill:#b5e5d3;stroke-width:1px"/></g><path d="m56 54h13v8l4 6H53l3-6z" style="fill:#b5e5d3;stroke-width:1px"/><path d="m91 54h13v8l4 6H88l3-6z" style="fill:#b5e5d3;stroke-width:1px"/><path d="M92.5 127H87c2 1 2 5 0 6 0 1 0 2 1 2z" style="fill:#b5e5d3;stroke-width:1px"/><path d="m67.9 127h5.5c-2 1-2 5 0 6 0 1 0 2-1 2z" style="fill:#b5e5d3;stroke-width:1px"/></g></svg>
