<svg xmlns="http://www.w3.org/2000/svg" width="512" height="512" viewBox="0 0 512 512"><g transform="matrix(3.05 0 0 3.05 12 24.2)"><path d="M18.4 1 0 32 68 151H92L160 31.5 141 1Zm38.9 3.7 4.2 5.8 37-0.1 3.8-5.3 37.7 0.2 15.4 26.2-19.4 34.3h-6.2l-19.4 32.8 3.2 6.2-23.4 42.1H70.4L46.5 105.7 49.7 99.3 31 66.2 23.9 65.7 4.8 32.2 19.9 5Z" style="fill:#f49a4a;stroke-width:1px"/><path d="M54.1 12.3H24l-11.4 20 16 27c5 0 7-0.1 9.7 4.5l18.3 30.8c2.7 5.4-2.1 9.7-1.8 10.3l19.5 35 11.3 0.1 19.5-34.2c-2.9-6.1-2.5-7.8-0.7-10.8L123.9 61.7c1.8-3.1 5.6-2.5 8.1-3L147.2 31.9 135.8 12h-29.4c-0.4 2.6-4 6-7.1 6l-39.2 0.3c-2.1 0-6-4-6-6z" style="fill:#815126;stroke-width:1px;stroke:#f49a4a"/><path d="m119 28v16h-7c0-2-3-2-3 0H68L62 41V31l6-3h41c0 2 3 2 3 0z" style="fill:#f9cca4;stroke-width:1px"/><path d="m119 50.9v16h-7c0-2-3-2-3 0H68l-6-3v-10l6-3h41c0 2 3 2 3 0z" style="fill:#f9cca4;stroke-width:1px"/><path d="m116.3 73.6-9.3 16-38.5 0-6-3v-10l6-3h41c0 2 3 2 3 0z" style="fill:#f9cca4;stroke-width:1px"/><path d="m103.3 95.9c-2.1 4.4 1.4 8.8 1.3 9.7l-4.1 7.2-33.5-0.1-5.3-3v-10l6.2-3.9z" style="fill:#f9cca4;stroke-width:1px"/><path d="M60 30.3V41.5c-8.8-0.2-16.5-2-22.9-6C44.9 31.1 52.5 31.2 60 30.3Z" style="fill:#f9cca4;stroke-width:1px"/><path d="M60 53.4V64.6C51.2 64.4 43.5 62.6 37.1 58.6 44.9 54.2 52.5 54.3 60 53.4Z" style="fill:#f9cca4;stroke-width:1px"/><path d="m60 76.4v11.2c-2.5-0.1-4.9-0.2-7.2-0.6L47.4 77.9C51.7 77.1 55.8 76.9 60 76.4Z" style="fill:#f9cca4;stroke-width:1px"/><path d="m60 99v11.2c-0.5 0-1 0-1.5 0l-3.1-5.5c0 0 2.1-2.9 2.5-5.4C58.6 99.2 59.3 99.1 60 99Z" style="fill:#f9cca4;stroke-width:1px"/></g></svg>
