<svg xmlns="http://www.w3.org/2000/svg" width="512" height="512" viewBox="0 0 512 512"><g transform="matrix(3.05 0 0 3.05 12 25.725)"><path d="M54.1 12.3H24l-11.4 20 16 27c5 0 7-0.1 9.7 4.5l18.3 30.8c2.7 5.4-2.1 9.7-1.8 10.3l19.5 35 11.3 0.1 19.5-34.2c-2.9-6.1-2.5-7.8-0.7-10.8L123.9 61.7c1.8-3.1 5.6-2.5 8.1-3L147.2 31.9 135.8 12h-29.4c-0.4 2.6-4 6-7.1 6l-39.2 0.3c-2.1 0-6-4-6-6z" style="fill:#801600;stroke-width:1px;stroke:#fe2c00"/><path d="M18.4 0 0 31.2 68 151H92L160 30.7 141 0Zm38.9 3.7 4.2 5.9 37-0.1 3.8-5.3 37.7 0.2 15.4 26.4-19.4 34.5h-6.2l-19.4 33 3.2 6.3-23.4 42.4H70.4L46.5 105.4 49.7 99 31 65.7 23.9 65.1 4.8 31.4 19.9 4Z" style="fill:#fe2c00;stroke-width:1px"/><g fill="#ff957f"><path d="M43 26V50H76V26Z" style="fill:#ff957f;stroke-width:1px"/><path d="m85 26v24h33V26Z" style="fill:#ff957f;stroke-width:1px"/><path d="M42.2 54.3V70.8L56.8 93.8C57.9 98 58.9 99 55.3 104.7L65.2 122.3h10L76 54H65l-3 7h-7l-3-7z" style="fill:#ff957f;stroke-width:1px"/><path d="M118 54V70.7L104.2 94.3C100.7 99.7 104 102.5 104.7 105.6l-9.3 16.4H85L85 54h9l3 7h7l3-7z" style="fill:#ff957f;stroke-width:1px"/></g></g></svg>
