<svg xmlns="http://www.w3.org/2000/svg" width="512" height="512" viewBox="0 0 512 512"><style>.a{fill:#b5e5d3;}.b{fill:#e2ee9c;stroke-width:1px;}</style><g transform="translate(1.03615 0.0397195)matrix(3.0833053 0 0 3.0833053 -7.0079069 13.560911)"><g transform="matrix(0.98919818 0 0 0.99337748 5.8287309 3.5583144)"><path d="M54.1 12.3H24l-11.4 20 16 27c5 0 7-0.1 9.7 4.5l18.3 30.8c2.7 5.4-2.1 9.7-1.8 10.3l19.5 35 11.3 0.1 19.5-34.2c-2.9-6.1-2.5-7.8-0.7-10.8L123.9 61.7c1.8-3.1 5.6-2.5 8.1-3L147.2 31.9 135.8 12h-29.4c-0.4 2.6-4 6-7.1 6l-39.2 0.3c-2.1 0-6-4-6-6z" style="fill:#636f1d;stroke-width:1px;stroke:#cee255"/><path d="M18.4 0 0 31.2 68 151H92L160 30.7 141 0Zm38.9 3.7 4.2 5.9 37-0.1 3.8-5.3 37.7 0.2 15.4 26.4-19.4 34.5h-6.2l-19.4 33 3.2 6.3-23.4 42.4H70.4L46.5 105.4 49.7 99 31 65.7 23.9 65.1 4.8 31.4 19.9 4Z" style="fill:#cee255;stroke-width:1px"/></g><path d="M107.3 26.5 55.9 77.2 74.6 77 62.3 110.6 63.7 113 112.5 65.5 93.4 65.7Z" class="b"/><path d="m104.9 99.1 2.1 6.9c-12 8.2-23 6.8-34.1 5.2l5.9-5.8c11.1 2.1 18.6-1.9 26.1-6.3z" class="b"/><path d="M109.8 96.1 125.4 69C124.1 57.5 120.1 46.6 109 38.7l-2.7 6.8c20.1 19.1 12.3 34.9 3.4 50.6z" class="b"/><path d="m94.8 31.7-5.5 6c-8.7-1.1-17.1 0.5-25.1 6.5l-2.6-7.2c12.5-7.5 23-6.8 33.3-5.3z" class="b"/><path d="m46.7 53.2 7.8 1.9c-4.2 7.7-6.5 14.2-3.4 23L43.8 65.9c-0.1-5.9 1.4-8.3 2.8-12.8z" class="b"/></g></svg>
