<svg xmlns="http://www.w3.org/2000/svg" viewBox="0 0 512 512" width="512" height="512"><style type="text/css">  
	.st0{fill:#3E36A5;}
	.st1{fill:#7E82FF;}
	.st2{fill:#C1C3FF;}
	.st3{fill:none;stroke:#7E82FF;}
</style><g transform="matrix(3.0827543 0 0 3.0827543 8.9172457 24.485225)"><path class="st0" d="M54.5 12.2H24.8L13.6 32.1 29.4 58.9c5 0 7 0 9.6 4.5L57.1 94c2.6 5.4-2 9.7-1.7 10.2l19.3 34.8 11.1 0.1 19.3-34.9c-2.8-6.1-2.5-7.1-0.7-10.2l19.2-32.6c1.8-3.1 5.5-2.5 8-3L146.7 31.8 135.4 12h-29.1c-0.4 2.6-4 5.9-7.1 6l-38.7 0.3c-2.1-0.1-6-4.1-6-6.1z"/><path class="st1" d="M19.2 0.1 1 31.1 68.3 150.1H92L159.3 30.6 140.5 0.1Zm38.5 3.7 4.1 5.8 36.6-0.1 3.7-5.3 37.3 0.2 15.2 26.2-19.2 34.4h-6.2L110 97.8 113.2 104 90 146.1H70.7L47 104.8 50.2 98.4 31.6 65.3 24.6 64.7 5.8 31.2 20.7 4Z"/><circle class="st2" cx="80" cy="66.6" r="5.5"/><rect x="77.5" y="18.1" class="st2" width="5" height="27.2"/><path class="st2" d="m56.9 101.4c3.7 2.4 7.7 4.3 12.1 5.5v-4.6C65 101 61.3 99 57.9 96.5c0.2 2-0.4 3.6-1 4.9z"/><path class="st2" d="m104.3 94.5c-4 3.5-8.6 6.3-13.6 7.9v4.6c4.7-1.3 9-3.4 12.9-6.1-1-2.9-0.5-4.4 0.7-6.4z"/><path class="st2" d="m39.6 55.8h4.6C48.2 44.1 57.6 34.7 69.3 31V26.2C55 30.4 43.8 41.5 39.6 55.8Z"/><polygon class="st2" points="59 64.1 39.4 64.1 42.4 69.2 59 69.2 "/><path class="st2" d="m115.8 55.8h4.9C116.7 41.4 105.4 30.2 91.1 26.2v4.6c11.5 3.7 21 13.2 24.7 25z"/><polygon class="st2" points="101 63.9 101 68.9 119.1 68.9 122.1 63.9 "/><rect x="77.5" y="87.7" class="st2" width="5" height="27.2"/><path class="st3" d="M54.4 12H24.7L13.5 32.1 29.3 58.9c5 0 7 0 9.6 4.5L57 94c2.6 5.4-2 9.7-1.7 10.2l19.3 34.8 11.1 0.1 19.3-34.9c-2.8-6.1-2.5-7.1-0.7-10.2l19.2-32.6c1.8-3.1 5.5-2.5 8-3L146.6 31.8 135.3 12h-29.1c-0.4 2.6-4 6-7.1 6H60.4c-2.1 0-6-4-6-6z"/></g></svg>
 